<svg viewBox="0 0 80 80" fill="none" xmlns="http://www.w3.org/2000/svg">
<path d="M51.8945 50.8393L51.9904 22.446H25.8993V20.3357H54.1166V50.8393C54.1166 56.8825 49.4964 65.1151 39.8082 65.4197C32.3308 65.6547 25.1319 59.4724 25.1319 50.8393H27.0009C27.0009 56.0737 29.9281 60.5656 35.7794 62.8297C32.228 59.673 29.5444 56.1961 29.5444 50.8393H31.6547C31.6547 56.4029 35.6835 61.3909 40.2878 62.8297C37.2182 60.7194 33.9568 56.1151 34.0528 50.8393H36.0063C36.0063 55.3977 42.9736 55.387 42.9736 50.8393L42.9736 31.4628H34.9161V29.3525H45.0954L44.988 50.8393C44.988 56.9784 37.7938 56.8825 37.0264 55.7314C37.7458 57.458 37.8897 57.458 38.9448 58.8969C44.8921 58.8969 47.482 54.6051 47.482 50.8393L47.5779 26.8585H30.5036V24.7482H49.4964V50.8393C49.4964 55.7254 45.8835 60.0578 40.9592 60.8154C42.0144 61.5827 43.1655 62.3501 44.1247 62.446C49.8801 60.1439 51.8945 55.4436 51.8945 50.8393Z" fill="#E09900"/>
<path d="M27.8177 10.2709C31.5719 8.72087 35.6861 7.86571 40 7.86571C48.1918 7.86571 55.6633 10.9494 61.3172 16.0192L63.0216 14.1977C56.9215 8.71067 48.8507 5.3717 40 5.3717C35.3462 5.3717 30.908 6.29486 26.8585 7.96805L27.8177 10.2709Z" fill="#f4f4f4"/>
<path d="M74.4364 39.8082C74.4364 58.8269 59.0187 74.2446 40 74.2446C20.9813 74.2446 5.56355 58.8269 5.56355 39.8082C5.56355 27.4599 12.0629 16.6296 21.8274 10.5516L23.2134 12.627C14.1173 18.2566 8.05756 28.3247 8.05756 39.8082C8.05756 57.4495 22.3587 71.7506 40 71.7506C57.6413 71.7506 71.9424 57.4495 71.9424 39.8082C71.9424 32.2562 69.3217 25.3164 64.94 19.8485L66.8354 18.2254C71.5904 24.1301 74.4364 31.6368 74.4364 39.8082Z" fill="#f4f4f4"/>
<path d="M0 40C0 62.0914 17.9086 80 40 80C44.0013 80 47.8655 79.4125 51.5108 78.319L50.7434 75.9331C47.3399 76.9486 43.7337 77.494 40 77.494C19.286 77.494 2.494 60.7073 2.494 40C2.494 19.2926 19.286 2.50602 40 2.50602C55.1775 2.50602 68.2495 11.5184 74.1529 24.4819L76.4135 23.4217C70.1125 9.60406 56.1778 0 40 0C17.9086 0 0 17.9086 0 40Z" fill="#E09900"/>
<path d="M77.9341 27.2771C79.274 31.2738 80 35.5521 80 40C80 56.5802 69.9123 70.8042 55.5396 76.8694L54.5803 74.5957C68.1028 68.9312 77.506 55.5745 77.506 40C77.506 35.8514 76.832 31.8602 75.5875 28.1298L77.9341 27.2771Z" fill="#E09900"/>
</svg>
